<svg width="26" height="45" viewBox="0 0 26 45" xmlns="http://www.w3.org/2000/svg">
    <g id="formkit:arrowup">
        <path id="Vector"
            d="M13.0001 38.5675C12.2268 38.5675 11.6191 37.9637 11.6191 37.1952V12.4934C11.6191 11.7249 12.2268 11.1211 13.0001 11.1211C13.7734 11.1211 14.381 11.7249 14.381 12.4934V37.1952C14.381 37.9637 13.7734 38.5675 13.0001 38.5675Z"
            fill="black" />
        <path id="Vector_2"
            d="M22.6667 20.7275C22.4856 20.7297 22.306 20.6942 22.1395 20.6233C21.9731 20.5524 21.8233 20.4476 21.7 20.3158L13 11.6701L4.30004 20.3158C3.74766 20.8647 2.89147 20.8647 2.33909 20.3158C1.78671 19.7668 1.78671 18.916 2.33909 18.3671L12.0058 8.76082C12.5581 8.21189 13.4143 8.21189 13.9667 8.76082L23.6334 18.3671C24.1858 18.916 24.1858 19.7668 23.6334 20.3158C23.3572 20.5902 22.9981 20.7275 22.6667 20.7275Z"
            fill="black" />
    </g>
</svg>